<?xml version="1.0" encoding="UTF-8" standalone="no"?>
<!-- Created with Inkscape (http://www.inkscape.org/) -->

<svg
   xmlns:dc="http://purl.org/dc/elements/1.1/"
   xmlns:cc="http://creativecommons.org/ns#"
   xmlns:rdf="http://www.w3.org/1999/02/22-rdf-syntax-ns#"
   xmlns:svg="http://www.w3.org/2000/svg"
   xmlns="http://www.w3.org/2000/svg"
   xmlns:sodipodi="http://sodipodi.sourceforge.net/DTD/sodipodi-0.dtd"
   xmlns:inkscape="http://www.inkscape.org/namespaces/inkscape"
   width="394.60715mm"
   height="270.63095mm"
   viewBox="0 0 394.60715 270.63095"
   version="1.1"
   id="svg8"
   inkscape:version="0.92.2 (5c3e80d, 2017-08-06)"
   sodipodi:docname="SMA Chile.svg">
  <defs
     id="defs2" />
  <sodipodi:namedview
     id="base"
     pagecolor="#ffffff"
     bordercolor="#666666"
     borderopacity="1.0"
     inkscape:pageopacity="0.0"
     inkscape:pageshadow="2"
     inkscape:zoom="0.35"
     inkscape:cx="606.33604"
     inkscape:cy="306.72819"
     inkscape:document-units="mm"
     inkscape:current-layer="layer1"
     showgrid="false"
     inkscape:snap-global="false"
     inkscape:window-width="1366"
     inkscape:window-height="715"
     inkscape:window-x="-8"
     inkscape:window-y="-8"
     inkscape:window-maximized="1"
     fit-margin-top="0"
     fit-margin-left="0"
     fit-margin-right="0"
     fit-margin-bottom="0" />
  <metadata
     id="metadata5">
    <rdf:RDF>
      <cc:Work
         rdf:about="">
        <dc:format>image/svg+xml</dc:format>
        <dc:type
           rdf:resource="http://purl.org/dc/dcmitype/StillImage" />
        <dc:title></dc:title>
      </cc:Work>
    </rdf:RDF>
  </metadata>
  <g
     inkscape:label="Capa 1"
     inkscape:groupmode="layer"
     id="layer1"
     transform="translate(92.303574,-13.184525)">
    <rect
       style="opacity:1;fill:#ffffff;fill-opacity:1;fill-rule:nonzero;stroke:none;stroke-width:8;stroke-linecap:round;stroke-linejoin:round;stroke-miterlimit:4;stroke-dasharray:none;stroke-dashoffset:0;stroke-opacity:1;paint-order:stroke markers fill"
       id="rect824"
       width="394.60715"
       height="270.63095"
       x="-92.303574"
       y="13.184525" />
    <path
       style="opacity:1;fill:#106bb2;fill-opacity:1;fill-rule:nonzero;stroke:none;stroke-width:8;stroke-linecap:round;stroke-linejoin:round;stroke-miterlimit:4;stroke-dasharray:none;stroke-dashoffset:0;stroke-opacity:1;paint-order:stroke markers fill"
       d="M 121.50374,42.777122 A 16.347469,16.347469 0 0 1 105.15627,59.124592 16.347469,16.347469 0 0 1 88.808804,42.777122 16.347469,16.347469 0 0 1 105.15627,26.429653 16.347469,16.347469 0 0 1 121.50374,42.777122 Z"
       id="path4515"
       inkscape:connector-curvature="0" />
    <path
       style="fill:#044f83;fill-opacity:1;stroke:none;stroke-width:0.26458332px;stroke-linecap:butt;stroke-linejoin:miter;stroke-opacity:1"
       d="m 44.774568,52.132032 c -2.124837,19.654762 0.631479,34.824239 12.851189,50.270828 12.219712,15.44659 27.723338,19.70887 44.412203,20.7887 C 100.8821,99.902241 91.723222,85.590391 86.351948,78.968342 80.980674,72.346298 75.098751,63.395459 44.774568,52.132032 Z"
       id="path4517"
       inkscape:connector-curvature="0"
       sodipodi:nodetypes="czczc" />
    <path
       sodipodi:nodetypes="czczc"
       inkscape:connector-curvature="0"
       id="path4519"
       d="m 166.58633,52.698997 c 2.31383,15.119047 0.66833,31.06181 -11.52827,46.491064 -12.1966,15.429259 -21.92069,20.601299 -40.44345,23.056559 3.23472,-24.612239 10.12575,-35.711289 16.25297,-43.845242 6.12723,-8.133949 9.17433,-13.494014 35.71875,-25.702381 z"
       style="fill:#bb3438;fill-opacity:1;stroke:none;stroke-width:0.26458332px;stroke-linecap:butt;stroke-linejoin:miter;stroke-opacity:1" />
    <path
       sodipodi:nodetypes="cscczc"
       inkscape:connector-curvature="0"
       id="path4521"
       d="m 44.774568,50.431139 c 26.269233,6.347313 40.340276,21.925564 47.214597,32.561301 7.165631,11.086441 11.487185,25.85068 12.653535,40.19912 h 7.60062 C 116.19014,100.84718 108.92114,80.865688 101.28201,72.542746 93.642876,64.219805 78.689525,46.953494 44.774568,50.431139 Z"
       style="fill:#106bb4;fill-opacity:1;stroke:none;stroke-width:0.26458332px;stroke-linecap:butt;stroke-linejoin:miter;stroke-opacity:1" />
    <path
       style="fill:#ed3e43;fill-opacity:1;stroke:none;stroke-width:0.26458332px;stroke-linecap:butt;stroke-linejoin:miter;stroke-opacity:1"
       d="m 165.7029,51.187091 c -30.98996,11.602977 -40.78373,26.504484 -50.54832,51.817979 -3.204,-20.202912 -4.52982,-19.235876 -8.98292,-27.249521 12.59438,-16.395207 27.98822,-29.740217 59.53124,-24.568458 z"
       id="path4523"
       inkscape:connector-curvature="0"
       sodipodi:nodetypes="cccc" />
    <g
       aria-label="SMA"
       style="font-style:normal;font-variant:normal;font-weight:normal;font-stretch:normal;font-size:89.58753967px;line-height:1.25;font-family:Futura;-inkscape-font-specification:Futura;font-variant-ligatures:normal;font-variant-caps:normal;font-variant-numeric:normal;font-feature-settings:normal;text-align:start;letter-spacing:0px;word-spacing:0px;writing-mode:lr-tb;text-anchor:start;fill:#0f6bb4;fill-opacity:1;stroke:none;stroke-width:0.46660176"
       id="text820">
      <path
         d="m 33.664372,171.00089 c -4.658552,-1.07505 -10.033805,-2.50845 -10.033805,-6.98783 0,-4.47937 3.762677,-7.61494 10.57133,-7.61494 13.706893,0 12.452668,9.58587 19.261321,9.58587 3.583502,0 6.719065,-2.1501 6.719065,-5.82319 0,-8.60041 -13.527718,-15.05071 -24.994923,-15.05071 -12.452668,0 -25.711624,5.37525 -25.711624,19.70926 0,6.89824 2.418864,14.24442 15.767407,17.64875 l 16.573695,4.21061 c 5.016902,1.25423 6.271128,4.12103 6.271128,6.71907 0,4.3002 -4.210615,8.51081 -11.825556,8.51081 -14.871531,0 -12.811018,-11.64638 -20.784309,-11.64638 -3.583501,0 -6.1815401,2.50845 -6.1815401,6.09195 0,6.98783 8.3316411,16.30494 26.9658491,16.30494 17.738333,0 26.517912,-8.68999 26.517912,-20.33637 0,-7.52536 -3.404326,-15.49865 -16.842457,-18.54463 z"
         style="font-style:normal;font-variant:normal;font-weight:normal;font-stretch:normal;font-family:'Helvetica Rounded';-inkscape-font-specification:'Helvetica Rounded';letter-spacing:-2.40241647px;fill:#0f6bb4;fill-opacity:1;stroke-width:0.46660176"
         id="path946"
         inkscape:connector-curvature="0" />
      <path
         d="m 70.908641,205.13374 c 0,3.67309 1.791751,7.16701 6.539891,7.16701 4.748139,0 6.53989,-3.49392 6.53989,-7.16701 V 165.1777 h 0.179175 l 13.706894,42.82284 c 0.985463,3.04598 3.225149,4.30021 6.271129,4.30021 3.04598,0 5.28566,-1.25423 6.27113,-4.30021 l 13.70689,-42.82284 h 0.17918 v 39.95604 c 0,3.67309 1.79175,7.16701 6.53989,7.16701 4.74814,0 6.53989,-3.49392 6.53989,-7.16701 v -52.40871 c 0,-5.91278 -4.03144,-7.25659 -7.9733,-7.25659 h -4.12102 c -4.56897,0 -6.71907,1.79175 -8.24206,6.71907 l -12.63184,41.38944 h -0.17917 L 91.424188,152.18751 c -1.522988,-4.92732 -3.673089,-6.71907 -8.242054,-6.71907 h -4.300202 c -3.941851,0 -7.973291,1.34381 -7.973291,7.25659 z"
         style="font-style:normal;font-variant:normal;font-weight:normal;font-stretch:normal;font-family:'Helvetica Rounded';-inkscape-font-specification:'Helvetica Rounded';letter-spacing:-2.40241647px;fill:#0f6bb4;fill-opacity:1;stroke-width:0.46660176"
         id="path948"
         inkscape:connector-curvature="0" />
      <path
         d="m 143.81995,200.20643 c -0.53752,1.4334 -1.4334,4.03144 -1.4334,5.64401 0,3.94186 2.77722,6.45031 6.80866,6.45031 3.49391,0 5.55442,-1.16464 6.53989,-4.03144 l 3.85226,-10.75051 h 23.65111 l 3.76268,10.75051 c 1.07505,2.8668 3.40432,4.03144 6.62948,4.03144 3.76267,0 6.89824,-2.8668 6.89824,-6.45031 0,-1.61257 -0.89588,-4.21061 -1.4334,-5.64401 l -17.73834,-49.36274 c -1.61257,-4.56896 -4.56896,-5.37525 -7.8837,-5.37525 h -3.49392 c -3.5835,0 -5.91277,1.16464 -7.167,4.47938 z m 36.19337,-12.90061 h -17.20081 l 8.68999,-25.8908 h 0.17918 z"
         style="font-style:normal;font-variant:normal;font-weight:normal;font-stretch:normal;font-family:'Helvetica Rounded';-inkscape-font-specification:'Helvetica Rounded';letter-spacing:-2.40241647px;fill:#0f6bb4;fill-opacity:1;stroke-width:0.46660176"
         id="path950"
         inkscape:connector-curvature="0" />
    </g>
    <g
       aria-label="Superintendencia del Medio Ambiente"
       style="font-style:normal;font-variant:normal;font-weight:normal;font-stretch:normal;font-size:20.91375542px;line-height:1.25;font-family:Futura;-inkscape-font-specification:Futura;font-variant-ligatures:normal;font-variant-caps:normal;font-variant-numeric:normal;font-feature-settings:normal;text-align:start;letter-spacing:0px;word-spacing:0px;writing-mode:lr-tb;text-anchor:start;fill:#2169a3;fill-opacity:1;stroke:none;stroke-width:0.10892581"
       id="text824">
      <path
         d="m -67.417905,244.9632 h 0.209137 q 0.66924,1.08752 1.380308,1.58945 0.83655,0.58558 2.00772,0.58558 1.254826,0 2.070462,-0.87838 0.83655,-0.89929 0.83655,-2.17503 0,-1.58944 -1.694014,-2.46782 -1.589445,-0.69015 -3.157977,-1.40122 -1.694014,-1.02478 -1.694014,-3.0325 0,-1.92406 1.380308,-3.01158 1.275739,-1.00386 3.262546,-1.00386 0.83655,0 1.631273,0.25097 0.794722,0.25096 1.359394,0.75289 -0.146397,0.33462 -0.250965,0.62742 -0.02091,0.0627 -0.313707,1.08751 h -0.209137 q -0.33462,-0.87838 -1.00386,-1.33848 -0.648327,-0.48102 -1.589446,-0.48102 -1.108429,0 -1.882238,0.69016 -0.752895,0.66924 -0.752895,1.75675 0,1.58945 1.694014,2.46783 1.589446,0.71106 3.178891,1.40122 1.714928,1.00386 1.714928,2.8861 0,2.19594 -1.50579,3.51351 -1.422136,1.25482 -3.659908,1.25482 -0.857464,0 -1.882238,-0.33462 -1.024774,-0.33462 -1.526704,-0.87838 0.16731,-0.4601 0.230052,-0.83655 0.08366,-0.39736 0.16731,-1.02477 z"
         style="font-style:normal;font-variant:normal;font-weight:normal;font-stretch:normal;font-family:Optima;-inkscape-font-specification:Optima;fill:#2169a3;fill-opacity:1;stroke-width:0.10892581"
         id="path881"
         inkscape:connector-curvature="0" />
      <path
         d="m -48.407302,237.78978 v 9.99678 l -0.83655,-0.0627 -0.83655,0.0627 v -1.79859 q -1.024774,1.9659 -3.325287,1.9659 -1.756756,0 -2.61422,-0.94112 -0.83655,-0.96203 -0.83655,-3.07432 v -6.14865 l 0.83655,0.0627 0.83655,-0.0627 v 5.64672 q 0,1.75675 0.564672,2.63513 0.585585,0.85746 1.965893,0.85746 1.443049,0 2.091375,-1.12934 0.481017,-0.83655 0.481017,-2.23777 v -5.7722 l 0.83655,0.0627 z"
         style="font-style:normal;font-variant:normal;font-weight:normal;font-stretch:normal;font-family:Optima;-inkscape-font-specification:Optima;fill:#2169a3;fill-opacity:1;stroke-width:0.10892581"
         id="path883"
         inkscape:connector-curvature="0" />
      <path
         d="m -43.604654,243.06005 q 0,1.77767 0.731982,2.84427 0.815636,1.17117 2.34234,1.17117 1.463963,0 2.216858,-1.35939 0.648327,-1.19209 0.648327,-3.1789 0,-1.79858 -0.585585,-2.84427 -0.731982,-1.31756 -2.300513,-1.31756 -1.631273,0 -2.425996,1.61036 -0.627413,1.25482 -0.627413,3.07432 z m 0,10.08043 -0.83655,-0.0627 -0.83655,0.0627 v -15.3507 l 0.83655,0.0627 0.83655,-0.0627 v 2.11229 q 0.711068,-1.25482 1.422136,-1.69401 0.899291,-0.54376 2.154116,-0.54376 1.94498,0 3.11615,1.44305 1.087515,1.33848 1.087515,3.3462 0,2.53056 -1.254825,4.01544 -1.233912,1.48488 -3.262546,1.48488 -1.108429,0 -1.903152,-0.50193 -0.773809,-0.50193 -1.317566,-1.50579 z"
         style="font-style:normal;font-variant:normal;font-weight:normal;font-stretch:normal;font-family:Optima;-inkscape-font-specification:Optima;fill:#2169a3;fill-opacity:1;stroke-width:0.10892581"
         id="path885"
         inkscape:connector-curvature="0" />
      <path
         d="m -25.751823,245.63244 -0.02091,1.08752 q -0.815636,0.58558 -1.714928,0.9202 -0.899291,0.31371 -1.882238,0.31371 -2.216858,0 -3.576252,-1.38031 -1.359394,-1.38031 -1.359394,-3.76448 0,-2.2796 1.212998,-3.6599 1.296653,-1.48488 3.576252,-1.48488 1.861324,0 2.990667,1.23391 1.254825,1.3594 1.254825,3.88996 l -4.245492,-0.0627 h -2.94884 q 0,1.88224 0.857464,3.05341 0.962033,1.29665 2.760616,1.29665 0.962033,0 1.861324,-0.50193 0.606499,-0.33462 1.233912,-0.94112 z m -6.713316,-3.68082 h 5.563059 q 0,-1.61036 -0.522844,-2.50965 -0.648326,-1.12934 -2.091375,-1.12934 -1.401222,0 -2.216858,1.15025 -0.731982,1.02478 -0.731982,2.48874 z"
         style="font-style:normal;font-variant:normal;font-weight:normal;font-stretch:normal;font-family:Optima;-inkscape-font-specification:Optima;fill:#2169a3;fill-opacity:1;stroke-width:0.10892581"
         id="path887"
         inkscape:connector-curvature="0" />
      <path
         d="m -22.907551,247.78656 v -9.99678 l 0.83655,0.0627 0.83655,-0.0627 v 2.09138 l 0.104569,-0.25097 q 0.564671,-0.89929 1.17117,-1.38031 0.731981,-0.58558 1.463963,-0.58558 0.418275,0 0.648326,0.10457 l -0.292792,1.75675 q -0.104569,-0.0209 -0.439189,-0.16731 -0.33462,-0.16731 -0.543758,-0.16731 -0.355534,0 -0.731981,0.1464 -0.376448,0.12548 -0.606499,0.37645 -0.481016,0.56467 -0.627413,1.15025 -0.146396,0.58559 -0.146396,1.50579 v 5.41667 l -0.83655,-0.0627 z"
         style="font-style:normal;font-variant:normal;font-weight:normal;font-stretch:normal;font-family:Optima;-inkscape-font-specification:Optima;fill:#2169a3;fill-opacity:1;stroke-width:0.10892581"
         id="path889"
         inkscape:connector-curvature="0" />
      <path
         d="m -13.831309,237.78978 v 9.99678 l -0.83655,-0.0627 -0.83655,0.0627 v -9.99678 l 0.83655,0.0627 z m 0.230051,-3.57625 q 0,0.43919 -0.313706,0.7529 -0.313706,0.3137 -0.752895,0.3137 -0.439189,0 -0.752895,-0.3137 -0.313707,-0.31371 -0.313707,-0.7529 0,-0.43919 0.313707,-0.7529 0.313706,-0.3137 0.752895,-0.3137 0.418275,0 0.731981,0.3137 0.33462,0.2928 0.33462,0.7529 z"
         style="font-style:normal;font-variant:normal;font-weight:normal;font-stretch:normal;font-family:Optima;-inkscape-font-specification:Optima;fill:#2169a3;fill-opacity:1;stroke-width:0.10892581"
         id="path891"
         inkscape:connector-curvature="0" />
      <path
         d="m -10.164211,247.78656 v -9.99678 l 0.8365499,0.0627 0.8365502,-0.0627 v 1.90315 q 0.5437577,-0.96203 1.4012216,-1.48487 0.8783778,-0.54376 1.9658931,-0.54376 1.7776692,0 2.5723919,0.98295 0.7947227,0.98294 0.7947227,3.09523 v 6.04408 l -0.8365502,-0.0627 -0.8365503,0.0627 v -5.56306 q 0,-1.6731 -0.4182751,-2.46782 -0.5437576,-1.00387 -1.9031517,-1.00387 -1.5476179,0 -2.1959443,1.12935 -0.5437577,0.96203 -0.5437577,3.05341 v 4.85199 l -0.8365502,-0.0627 z"
         style="font-style:normal;font-variant:normal;font-weight:normal;font-stretch:normal;font-family:Optima;-inkscape-font-specification:Optima;fill:#2169a3;fill-opacity:1;stroke-width:0.10892581"
         id="path893"
         inkscape:connector-curvature="0" />
      <path
         d="m 1.3726651,235.71932 1.6731004,-0.64833 v 2.71879 h 2.2168581 q -0.041828,0.29279 -0.041828,0.43919 0,0.1464 0.041828,0.35553 H 3.0457655 v 5.24936 0.66924 q 0,1.27574 0.2091376,1.81949 0.3555338,0.8993 1.3384803,0.8993 0.2300513,0 0.5019301,-0.0627 0.2927926,-0.0627 0.4391889,-0.0837 v 0.50193 q -0.5019301,0.18822 -0.8992915,0.27188 -0.3973613,0.10457 -0.8574639,0.10457 -1.2548254,0 -1.798583,-0.66924 -0.6064989,-0.7529 -0.6064989,-2.61422 V 238.5845 H 0.07601225 q 0.04182751,-0.12548 0.04182751,-0.39736 0,-0.25096 -0.04182751,-0.39736 H 1.3726651 Z"
         style="font-style:normal;font-variant:normal;font-weight:normal;font-stretch:normal;font-family:Optima;-inkscape-font-specification:Optima;fill:#2169a3;fill-opacity:1;stroke-width:0.10892581"
         id="path895"
         inkscape:connector-curvature="0" />
      <path
         d="m 14.931969,245.63244 -0.02091,1.08752 q -0.815636,0.58558 -1.714928,0.9202 -0.899291,0.31371 -1.882238,0.31371 -2.2168578,0 -3.5762519,-1.38031 -1.3593941,-1.38031 -1.3593941,-3.76448 0,-2.2796 1.2129978,-3.6599 1.2966528,-1.48488 3.5762522,-1.48488 1.861324,0 2.990667,1.23391 1.254825,1.3594 1.254825,3.88996 l -4.245492,-0.0627 H 8.2186535 q 0,1.88224 0.8574639,3.05341 0.9620326,1.29665 2.7606156,1.29665 0.962033,0 1.861324,-0.50193 0.606499,-0.33462 1.233912,-0.94112 z m -6.7133155,-3.68082 h 5.5630585 q 0,-1.61036 -0.522843,-2.50965 -0.648327,-1.12934 -2.091376,-1.12934 -1.4012216,0 -2.2168581,1.15025 -0.7319814,1.02478 -0.7319814,2.48874 z"
         style="font-style:normal;font-variant:normal;font-weight:normal;font-stretch:normal;font-family:Optima;-inkscape-font-specification:Optima;fill:#2169a3;fill-opacity:1;stroke-width:0.10892581"
         id="path897"
         inkscape:connector-curvature="0" />
      <path
         d="m 17.734413,247.78656 v -9.99678 l 0.83655,0.0627 0.836551,-0.0627 v 1.90315 q 0.543757,-0.96203 1.401221,-1.48487 0.878378,-0.54376 1.965893,-0.54376 1.777669,0 2.572392,0.98295 0.794723,0.98294 0.794723,3.09523 v 6.04408 l -0.83655,-0.0627 -0.836551,0.0627 v -5.56306 q 0,-1.6731 -0.418275,-2.46782 -0.543757,-1.00387 -1.903151,-1.00387 -1.547618,0 -2.195945,1.12935 -0.543757,0.96203 -0.543757,3.05341 v 4.85199 l -0.836551,-0.0627 z"
         style="font-style:normal;font-variant:normal;font-weight:normal;font-stretch:normal;font-family:Optima;-inkscape-font-specification:Optima;fill:#2169a3;fill-opacity:1;stroke-width:0.10892581"
         id="path899"
         inkscape:connector-curvature="0" />
      <path
         d="m 37.950494,232.08033 v 15.70623 l -0.83655,-0.0627 -0.83655,0.0627 v -2.00772 q -1.275739,2.17503 -3.597166,2.17503 -1.861324,0 -2.969753,-1.23391 -1.212998,-1.33848 -1.212998,-3.82722 0,-2.21686 1.233911,-3.72265 1.233912,-1.50579 3.262546,-1.50579 1.045688,0 1.882238,0.54376 0.83655,0.52284 1.401222,1.48487 v -7.6126 l 0.83655,0.0627 z m -1.6731,10.43596 q 0,-1.56853 -0.606499,-2.65605 -0.752895,-1.33848 -2.216858,-1.33848 -1.798583,0 -2.551478,1.52671 -0.564672,1.12934 -0.564672,3.13706 0,1.58945 0.606499,2.67696 0.752895,1.33848 2.258686,1.33848 1.631273,0 2.446909,-1.61036 0.627413,-1.25482 0.627413,-3.07432 z"
         style="font-style:normal;font-variant:normal;font-weight:normal;font-stretch:normal;font-family:Optima;-inkscape-font-specification:Optima;fill:#2169a3;fill-opacity:1;stroke-width:0.10892581"
         id="path901"
         inkscape:connector-curvature="0" />
      <path
         d="m 48.671738,245.63244 -0.02091,1.08752 q -0.815636,0.58558 -1.714928,0.9202 -0.899291,0.31371 -1.882238,0.31371 -2.216858,0 -3.576252,-1.38031 -1.359394,-1.38031 -1.359394,-3.76448 0,-2.2796 1.212998,-3.6599 1.296653,-1.48488 3.576252,-1.48488 1.861324,0 2.990667,1.23391 1.254825,1.3594 1.254825,3.88996 l -4.245492,-0.0627 h -2.94884 q 0,1.88224 0.857464,3.05341 0.962033,1.29665 2.760616,1.29665 0.962033,0 1.861324,-0.50193 0.606499,-0.33462 1.233912,-0.94112 z m -6.713316,-3.68082 h 5.563059 q 0,-1.61036 -0.522844,-2.50965 -0.648326,-1.12934 -2.091375,-1.12934 -1.401222,0 -2.216858,1.15025 -0.731982,1.02478 -0.731982,2.48874 z"
         style="font-style:normal;font-variant:normal;font-weight:normal;font-stretch:normal;font-family:Optima;-inkscape-font-specification:Optima;fill:#2169a3;fill-opacity:1;stroke-width:0.10892581"
         id="path903"
         inkscape:connector-curvature="0" />
      <path
         d="m 51.474182,247.78656 v -9.99678 l 0.83655,0.0627 0.836551,-0.0627 v 1.90315 q 0.543757,-0.96203 1.401221,-1.48487 0.878378,-0.54376 1.965893,-0.54376 1.777669,0 2.572392,0.98295 0.794723,0.98294 0.794723,3.09523 v 6.04408 l -0.83655,-0.0627 -0.836551,0.0627 v -5.56306 q 0,-1.6731 -0.418275,-2.46782 -0.543757,-1.00387 -1.903152,-1.00387 -1.547617,0 -2.195944,1.12935 -0.543757,0.96203 -0.543757,3.05341 v 4.85199 l -0.836551,-0.0627 z"
         style="font-style:normal;font-variant:normal;font-weight:normal;font-stretch:normal;font-family:Optima;-inkscape-font-specification:Optima;fill:#2169a3;fill-opacity:1;stroke-width:0.10892581"
         id="path905"
         inkscape:connector-curvature="0" />
      <path
         d="m 71.083772,238.52176 -0.481016,1.38031 h -0.167311 q -0.125482,-0.16731 -0.271878,-0.35553 -0.146397,-0.20914 -0.292793,-0.33462 -0.355534,-0.39736 -0.920205,-0.6065 -0.564672,-0.23005 -1.150257,-0.23005 -1.714928,0 -2.697874,1.31756 -0.899292,1.213 -0.899292,2.96976 0,2.00772 1.045688,3.30437 1.066602,1.27574 2.760616,1.27574 0.857464,0 1.568532,-0.37645 0.543757,-0.29279 1.317566,-0.98294 l 0.125483,0.0627 -0.104569,0.96203 q -1.422136,1.04569 -3.199805,1.04569 -2.551478,0 -3.994527,-1.48488 -1.359394,-1.40122 -1.359394,-3.70173 0,-2.38417 1.50579,-3.74357 1.505791,-1.35939 3.910873,-1.35939 0.962032,0 1.756755,0.20914 0.794723,0.18822 1.547618,0.64832 z"
         style="font-style:normal;font-variant:normal;font-weight:normal;font-stretch:normal;font-family:Optima;-inkscape-font-specification:Optima;fill:#2169a3;fill-opacity:1;stroke-width:0.10892581"
         id="path907"
         inkscape:connector-curvature="0" />
      <path
         d="m 75.705713,237.78978 v 9.99678 l -0.83655,-0.0627 -0.836551,0.0627 v -9.99678 l 0.836551,0.0627 z m 0.230051,-3.57625 q 0,0.43919 -0.313706,0.7529 -0.313707,0.3137 -0.752895,0.3137 -0.439189,0 -0.752896,-0.3137 -0.313706,-0.31371 -0.313706,-0.7529 0,-0.43919 0.313706,-0.7529 0.313707,-0.3137 0.752896,-0.3137 0.418275,0 0.731981,0.3137 0.33462,0.2928 0.33462,0.7529 z"
         style="font-style:normal;font-variant:normal;font-weight:normal;font-stretch:normal;font-family:Optima;-inkscape-font-specification:Optima;fill:#2169a3;fill-opacity:1;stroke-width:0.10892581"
         id="path909"
         inkscape:connector-curvature="0" />
      <path
         d="m 86.399825,241.17781 v 4.85199 q 0,0.31371 0,0.6065 0.06274,0.43919 0.564671,0.43919 0.271879,0 0.606499,-0.0837 v 0.46011 q -0.104569,0.0418 -0.313706,0.12548 -0.188224,0.0627 -0.439189,0.10457 -0.230052,0.0418 -0.564672,0.0418 -0.606499,0 -1.00386,-0.2928 -0.376448,-0.29279 -0.460103,-0.98294 l -0.188223,0.18822 q -1.317567,1.31757 -3.095236,1.31757 -1.150257,0 -1.965893,-0.71107 -0.815637,-0.71107 -0.815637,-1.84041 0,-1.58945 1.192084,-2.2796 0.731982,-0.41828 2.676961,-0.73198 1.359394,-0.23005 1.714928,-0.41828 0.50193,-0.27188 0.50193,-0.98294 0,-1.17117 -0.648326,-1.79859 -0.627413,-0.64832 -1.798583,-0.64832 -1.003861,0 -1.756756,0.54375 -0.585585,0.41828 -0.731981,0.8993 h -0.230051 v -1.17117 q 0.815636,-0.56468 1.631272,-0.85747 0.836551,-0.29279 1.735842,-0.29279 3.388029,0 3.388029,3.51351 z m -1.673101,4.45463 v -3.05341 l -0.731981,0.1464 q -1.819497,0.35553 -2.300513,0.56467 -1.254826,0.56467 -1.254826,1.8195 0,0.96203 0.543758,1.46396 0.543758,0.50193 1.50579,0.50193 0.397362,0 0.878378,-0.23005 0.481016,-0.25097 0.794723,-0.56467 0.16731,-0.1464 0.355534,-0.33462 0.209137,-0.20914 0.209137,-0.31371 z"
         style="font-style:normal;font-variant:normal;font-weight:normal;font-stretch:normal;font-family:Optima;-inkscape-font-specification:Optima;fill:#2169a3;fill-opacity:1;stroke-width:0.10892581"
         id="path911"
         inkscape:connector-curvature="0" />
      <path
         d="m 104.20461,232.08033 v 15.70623 l -0.83655,-0.0627 -0.83655,0.0627 v -2.00772 q -1.27574,2.17503 -3.597162,2.17503 -1.861325,0 -2.969754,-1.23391 -1.212997,-1.33848 -1.212997,-3.82722 0,-2.21686 1.233911,-3.72265 1.233912,-1.50579 3.262546,-1.50579 1.045686,0 1.882236,0.54376 0.83655,0.52284 1.40122,1.48487 v -7.6126 l 0.83655,0.0627 z m -1.6731,10.43596 q 0,-1.56853 -0.6065,-2.65605 -0.75289,-1.33848 -2.216853,-1.33848 -1.798583,0 -2.551479,1.52671 -0.564671,1.12934 -0.564671,3.13706 0,1.58945 0.606499,2.67696 0.752895,1.33848 2.258686,1.33848 1.631268,0 2.446908,-1.61036 0.62741,-1.25482 0.62741,-3.07432 z"
         style="font-style:normal;font-variant:normal;font-weight:normal;font-stretch:normal;font-family:Optima;-inkscape-font-specification:Optima;fill:#2169a3;fill-opacity:1;stroke-width:0.10892581"
         id="path913"
         inkscape:connector-curvature="0" />
      <path
         d="m 114.92586,245.63244 -0.0209,1.08752 q -0.81563,0.58558 -1.71492,0.9202 -0.8993,0.31371 -1.88224,0.31371 -2.21686,0 -3.57625,-1.38031 -1.3594,-1.38031 -1.3594,-3.76448 0,-2.2796 1.213,-3.6599 1.29665,-1.48488 3.57625,-1.48488 1.86133,0 2.99067,1.23391 1.25482,1.3594 1.25482,3.88996 l -4.24549,-0.0627 h -2.94884 q 0,1.88224 0.85747,3.05341 0.96203,1.29665 2.76061,1.29665 0.96203,0 1.86133,-0.50193 0.6065,-0.33462 1.23391,-0.94112 z m -6.71332,-3.68082 h 5.56306 q 0,-1.61036 -0.52284,-2.50965 -0.64833,-1.12934 -2.09138,-1.12934 -1.40122,0 -2.21686,1.15025 -0.73198,1.02478 -0.73198,2.48874 z"
         style="font-style:normal;font-variant:normal;font-weight:normal;font-stretch:normal;font-family:Optima;-inkscape-font-specification:Optima;fill:#2169a3;fill-opacity:1;stroke-width:0.10892581"
         id="path915"
         inkscape:connector-curvature="0" />
      <path
         d="m 118.1884,247.78656 v -15.70623 l 0.83655,0.0627 0.83656,-0.0627 v 15.70623 l -0.83656,-0.0627 z"
         style="font-style:normal;font-variant:normal;font-weight:normal;font-stretch:normal;font-family:Optima;-inkscape-font-specification:Optima;fill:#2169a3;fill-opacity:1;stroke-width:0.10892581"
         id="path917"
         inkscape:connector-curvature="0" />
      <path
         d="m 143.13198,233.48155 h 0.43919 q 0.43919,4.16184 0.54376,5.10295 0.33462,3.07433 0.54376,4.78925 0.23005,1.69402 0.60649,4.41281 l -0.98294,-0.0627 -0.98295,0.0627 q -0.18822,-2.09138 -0.35553,-3.99453 -0.1464,-1.90315 -0.35554,-3.76448 -0.18822,-1.86132 -0.35553,-3.03249 -1.27574,2.30051 -2.21686,4.01544 -1.08751,2.00772 -1.81949,3.47168 -0.79473,1.61036 -1.44305,3.07433 h -0.23005 l -1.15026,-2.36326 q -0.7529,-1.56853 -1.33848,-2.69787 -0.58559,-1.15026 -1.44305,-2.78153 -0.73198,-1.3594 -1.44305,-2.71879 -0.35553,2.99067 -0.69015,6.04407 -0.33462,3.05341 -0.33462,4.74743 l -0.73199,-0.0627 -0.75289,0.0627 q 0.43919,-2.71879 1.15026,-7.71718 0.71106,-5.0193 0.85746,-6.58783 h 0.54376 q 1.08751,2.1332 1.77767,3.4926 0.83655,1.61035 1.9868,3.70173 1.25483,2.2796 2.15412,3.76448 3.01158,-5.47941 6.02316,-10.95881 z"
         style="font-style:normal;font-variant:normal;font-weight:normal;font-stretch:normal;font-family:Optima;-inkscape-font-specification:Optima;fill:#2169a3;fill-opacity:1;stroke-width:0.10892581"
         id="path919"
         inkscape:connector-curvature="0" />
      <path
         d="m 155.5688,245.63244 -0.0209,1.08752 q -0.81564,0.58558 -1.71493,0.9202 -0.89929,0.31371 -1.88224,0.31371 -2.21686,0 -3.57625,-1.38031 -1.35939,-1.38031 -1.35939,-3.76448 0,-2.2796 1.21299,-3.6599 1.29666,-1.48488 3.57626,-1.48488 1.86132,0 2.99066,1.23391 1.25483,1.3594 1.25483,3.88996 l -4.24549,-0.0627 h -2.94884 q 0,1.88224 0.85746,3.05341 0.96203,1.29665 2.76062,1.29665 0.96203,0 1.86132,-0.50193 0.6065,-0.33462 1.23391,-0.94112 z m -6.71331,-3.68082 h 5.56306 q 0,-1.61036 -0.52285,-2.50965 -0.64832,-1.12934 -2.09137,-1.12934 -1.40123,0 -2.21686,1.15025 -0.73198,1.02478 -0.73198,2.48874 z"
         style="font-style:normal;font-variant:normal;font-weight:normal;font-stretch:normal;font-family:Optima;-inkscape-font-specification:Optima;fill:#2169a3;fill-opacity:1;stroke-width:0.10892581"
         id="path921"
         inkscape:connector-curvature="0" />
      <path
         d="m 166.94589,232.08033 v 15.70623 l -0.83655,-0.0627 -0.83655,0.0627 v -2.00772 q -1.27574,2.17503 -3.59717,2.17503 -1.86132,0 -2.96975,-1.23391 -1.213,-1.33848 -1.213,-3.82722 0,-2.21686 1.23391,-3.72265 1.23391,-1.50579 3.26255,-1.50579 1.04568,0 1.88223,0.54376 0.83655,0.52284 1.40123,1.48487 v -7.6126 l 0.83655,0.0627 z m -1.6731,10.43596 q 0,-1.56853 -0.6065,-2.65605 -0.7529,-1.33848 -2.21686,-1.33848 -1.79858,0 -2.55148,1.52671 -0.56467,1.12934 -0.56467,3.13706 0,1.58945 0.6065,2.67696 0.75289,1.33848 2.25868,1.33848 1.63128,0 2.44691,-1.61036 0.62742,-1.25482 0.62742,-3.07432 z"
         style="font-style:normal;font-variant:normal;font-weight:normal;font-stretch:normal;font-family:Optima;-inkscape-font-specification:Optima;fill:#2169a3;fill-opacity:1;stroke-width:0.10892581"
         id="path923"
         inkscape:connector-curvature="0" />
      <path
         d="m 172.1459,237.78978 v 9.99678 l -0.83655,-0.0627 -0.83655,0.0627 v -9.99678 l 0.83655,0.0627 z m 0.23005,-3.57625 q 0,0.43919 -0.31371,0.7529 -0.3137,0.3137 -0.75289,0.3137 -0.43919,0 -0.7529,-0.3137 -0.3137,-0.31371 -0.3137,-0.7529 0,-0.43919 0.3137,-0.7529 0.31371,-0.3137 0.7529,-0.3137 0.41827,0 0.73198,0.3137 0.33462,0.2928 0.33462,0.7529 z"
         style="font-style:normal;font-variant:normal;font-weight:normal;font-stretch:normal;font-family:Optima;-inkscape-font-specification:Optima;fill:#2169a3;fill-opacity:1;stroke-width:0.10892581"
         id="path925"
         inkscape:connector-curvature="0" />
      <path
         d="m 174.93461,242.70451 q 0,-2.21685 1.50579,-3.61808 1.52671,-1.42213 3.8063,-1.42213 2.15412,0 3.4926,1.40122 1.3594,1.38031 1.3594,3.70174 0,2.1332 -1.31757,3.59716 -1.44305,1.58945 -3.91087,1.58945 -2.15412,0 -3.55534,-1.42214 -1.38031,-1.44305 -1.38031,-3.82722 z m 5.29118,-4.39188 q -1.84041,0 -2.71879,1.50579 -0.73198,1.23391 -0.73198,3.1998 0,1.77767 0.73198,2.92793 0.85747,1.35939 2.53057,1.35939 1.65218,0 2.53056,-1.69401 0.69016,-1.31757 0.69016,-2.94884 0,-1.71493 -0.62742,-2.86519 -0.81563,-1.48487 -2.40508,-1.48487 z"
         style="font-style:normal;font-variant:normal;font-weight:normal;font-stretch:normal;font-family:Optima;-inkscape-font-specification:Optima;fill:#2169a3;fill-opacity:1;stroke-width:0.10892581"
         id="path927"
         inkscape:connector-curvature="0" />
      <path
         d="m 198.6379,233.16784 6.27413,14.61872 -1.08752,-0.0627 -1.10843,0.0627 q -0.75289,-2.15412 -1.27574,-3.47169 -0.33462,-0.83655 -0.9202,-2.17503 h -5.3121 q -1.21299,3.0325 -1.35939,3.45077 -0.31371,0.83655 -0.71107,2.19595 l -0.77381,-0.0627 -0.73198,0.0627 6.52509,-14.61872 z m 1.56853,8.09363 -2.32142,-5.35393 -2.2796,5.35393 z"
         style="font-style:normal;font-variant:normal;font-weight:normal;font-stretch:normal;font-family:Optima;-inkscape-font-specification:Optima;fill:#2169a3;fill-opacity:1;stroke-width:0.10892581"
         id="path929"
         inkscape:connector-curvature="0" />
      <path
         d="m 206.77222,247.78656 v -9.99678 l 0.83655,0.0627 0.83655,-0.0627 v 1.79859 q 0.52285,-0.92021 1.27574,-1.42214 0.77381,-0.50193 1.8195,-0.50193 1.04569,0 1.88224,0.54376 0.85746,0.54375 1.17117,1.5267 1.23391,-2.07046 3.28346,-2.07046 1.84041,0 2.63513,1.0666 0.73198,0.96203 0.73198,3.01158 v 6.04408 l -0.83655,-0.0627 -0.83655,0.0627 v -5.56306 q 0,-1.69402 -0.37645,-2.426 -0.52284,-1.04569 -1.94498,-1.04569 -1.40122,0 -1.9868,1.12935 -0.41828,0.81563 -0.41828,2.25868 v 5.64672 l -0.83655,-0.0627 -0.83655,0.0627 v -6.12773 q 0,-2.90702 -2.21686,-2.90702 -1.46396,0 -2.04954,0.8993 -0.46011,0.71106 -0.46011,2.04954 v 6.08591 l -0.83655,-0.0627 z"
         style="font-style:normal;font-variant:normal;font-weight:normal;font-stretch:normal;font-family:Optima;-inkscape-font-specification:Optima;fill:#2169a3;fill-opacity:1;stroke-width:0.10892581"
         id="path931"
         inkscape:connector-curvature="0" />
      <path
         d="m 228.85682,238.54268 q -1.65219,0 -2.46782,1.5267 -0.66925,1.25483 -0.66925,3.38803 0,1.71493 0.77381,2.78153 0.79473,1.04569 2.15412,1.04569 1.61036,0 2.44691,-1.61036 0.66924,-1.27574 0.66924,-3.07432 0,-1.8195 -0.66924,-2.86519 -0.77381,-1.19208 -2.23777,-1.19208 z m -4.76834,9.18114 v -15.64349 l 0.83655,0.0627 0.83655,-0.0627 v 7.73809 q 0.71107,-1.04569 1.52671,-1.56854 0.9202,-0.58558 2.09137,-0.58558 2.07046,0 3.22072,1.54762 1.00386,1.35939 1.00386,3.30437 0,2.21686 -1.23391,3.76448 -1.33848,1.6731 -3.4926,1.6731 -1.15025,0 -1.9868,-0.52285 -0.58559,-0.35553 -0.98295,-0.96203 -0.25097,0.18822 -0.71107,0.6065 -0.35553,0.33462 -0.71107,0.64833 z"
         style="font-style:normal;font-variant:normal;font-weight:normal;font-stretch:normal;font-family:Optima;-inkscape-font-specification:Optima;fill:#2169a3;fill-opacity:1;stroke-width:0.10892581"
         id="path933"
         inkscape:connector-curvature="0" />
      <path
         d="m 238.1141,237.78978 v 9.99678 l -0.83655,-0.0627 -0.83655,0.0627 v -9.99678 l 0.83655,0.0627 z m 0.23005,-3.57625 q 0,0.43919 -0.31371,0.7529 -0.3137,0.3137 -0.75289,0.3137 -0.43919,0 -0.7529,-0.3137 -0.3137,-0.31371 -0.3137,-0.7529 0,-0.43919 0.3137,-0.7529 0.31371,-0.3137 0.7529,-0.3137 0.41827,0 0.73198,0.3137 0.33462,0.2928 0.33462,0.7529 z"
         style="font-style:normal;font-variant:normal;font-weight:normal;font-stretch:normal;font-family:Optima;-inkscape-font-specification:Optima;fill:#2169a3;fill-opacity:1;stroke-width:0.10892581"
         id="path935"
         inkscape:connector-curvature="0" />
      <path
         d="m 249.43562,245.63244 -0.0209,1.08752 q -0.81564,0.58558 -1.71493,0.9202 -0.89929,0.31371 -1.88224,0.31371 -2.21685,0 -3.57625,-1.38031 -1.35939,-1.38031 -1.35939,-3.76448 0,-2.2796 1.213,-3.6599 1.29665,-1.48488 3.57625,-1.48488 1.86132,0 2.99066,1.23391 1.25483,1.3594 1.25483,3.88996 l -4.24549,-0.0627 h -2.94884 q 0,1.88224 0.85746,3.05341 0.96203,1.29665 2.76062,1.29665 0.96203,0 1.86132,-0.50193 0.6065,-0.33462 1.23391,-0.94112 z m -6.71331,-3.68082 h 5.56306 q 0,-1.61036 -0.52285,-2.50965 -0.64832,-1.12934 -2.09137,-1.12934 -1.40122,0 -2.21686,1.15025 -0.73198,1.02478 -0.73198,2.48874 z"
         style="font-style:normal;font-variant:normal;font-weight:normal;font-stretch:normal;font-family:Optima;-inkscape-font-specification:Optima;fill:#2169a3;fill-opacity:1;stroke-width:0.10892581"
         id="path937"
         inkscape:connector-curvature="0" />
      <path
         d="m 252.23807,247.78656 v -9.99678 l 0.83655,0.0627 0.83655,-0.0627 v 1.90315 q 0.54376,-0.96203 1.40122,-1.48487 0.87838,-0.54376 1.96589,-0.54376 1.77767,0 2.57239,0.98295 0.79473,0.98294 0.79473,3.09523 v 6.04408 l -0.83655,-0.0627 -0.83655,0.0627 v -5.56306 q 0,-1.6731 -0.41828,-2.46782 -0.54376,-1.00387 -1.90315,-1.00387 -1.54762,0 -2.19594,1.12935 -0.54376,0.96203 -0.54376,3.05341 v 4.85199 l -0.83655,-0.0627 z"
         style="font-style:normal;font-variant:normal;font-weight:normal;font-stretch:normal;font-family:Optima;-inkscape-font-specification:Optima;fill:#2169a3;fill-opacity:1;stroke-width:0.10892581"
         id="path939"
         inkscape:connector-curvature="0" />
      <path
         d="m 263.77495,235.71932 1.6731,-0.64833 v 2.71879 h 2.21686 q -0.0418,0.29279 -0.0418,0.43919 0,0.1464 0.0418,0.35553 h -2.21686 v 5.24936 0.66924 q 0,1.27574 0.20914,1.81949 0.35553,0.8993 1.33848,0.8993 0.23005,0 0.50193,-0.0627 0.29279,-0.0627 0.43919,-0.0837 v 0.50193 q -0.50194,0.18822 -0.8993,0.27188 -0.39736,0.10457 -0.85746,0.10457 -1.25483,0 -1.79858,-0.66924 -0.6065,-0.7529 -0.6065,-2.61422 v -6.08591 h -1.29666 q 0.0418,-0.12548 0.0418,-0.39736 0,-0.25096 -0.0418,-0.39736 h 1.29666 z"
         style="font-style:normal;font-variant:normal;font-weight:normal;font-stretch:normal;font-family:Optima;-inkscape-font-specification:Optima;fill:#2169a3;fill-opacity:1;stroke-width:0.10892581"
         id="path941"
         inkscape:connector-curvature="0" />
      <path
         d="m 277.33424,245.63244 -0.0209,1.08752 q -0.81564,0.58558 -1.71493,0.9202 -0.89929,0.31371 -1.88224,0.31371 -2.21685,0 -3.57625,-1.38031 -1.35939,-1.38031 -1.35939,-3.76448 0,-2.2796 1.213,-3.6599 1.29665,-1.48488 3.57625,-1.48488 1.86132,0 2.99067,1.23391 1.25482,1.3594 1.25482,3.88996 l -4.24549,-0.0627 h -2.94884 q 0,1.88224 0.85746,3.05341 0.96204,1.29665 2.76062,1.29665 0.96203,0 1.86132,-0.50193 0.6065,-0.33462 1.23391,-0.94112 z m -6.71331,-3.68082 h 5.56306 q 0,-1.61036 -0.52285,-2.50965 -0.64832,-1.12934 -2.09137,-1.12934 -1.40122,0 -2.21686,1.15025 -0.73198,1.02478 -0.73198,2.48874 z"
         style="font-style:normal;font-variant:normal;font-weight:normal;font-stretch:normal;font-family:Optima;-inkscape-font-specification:Optima;fill:#2169a3;fill-opacity:1;stroke-width:0.10892581"
         id="path943"
         inkscape:connector-curvature="0" />
    </g>
    <g
       aria-label="Gobierno de Chile"
       style="font-style:normal;font-variant:normal;font-weight:normal;font-stretch:normal;font-size:18.32468224px;line-height:1.25;font-family:Futura;-inkscape-font-specification:Futura;font-variant-ligatures:normal;font-variant-caps:normal;font-variant-numeric:normal;font-feature-settings:normal;text-align:start;letter-spacing:0px;word-spacing:0px;writing-mode:lr-tb;text-anchor:start;fill:#2f6d9e;fill-opacity:1;stroke:none;stroke-width:0.09544104"
       id="text828">
      <path
         d="m 43.989056,260.01532 h -0.201572 q -0.751312,-0.86126 -1.850793,-1.31937 -1.081156,-0.45812 -2.27226,-0.45812 -2.400534,0 -3.848184,1.52095 -1.429325,1.50262 -1.429325,4.233 0,2.78535 1.392676,4.34295 1.411,1.53927 4.086404,1.53927 0.769637,0 1.502624,-0.14659 0.751312,-0.16493 1.356026,-0.47645 v -4.70944 l 0.806286,0.055 0.806286,-0.055 v 5.18589 q -2.437182,0.84293 -4.984313,0.84293 -3.335092,0 -5.112586,-1.85079 -1.649222,-1.72252 -1.649222,-4.63615 0,-3.11519 2.03404,-4.87436 1.942416,-1.66755 5.112586,-1.66755 1.795819,0 3.20682,0.42147 0.86126,0.25655 1.465974,0.64136 -0.0733,0.20158 -0.201571,0.60472 -0.109948,0.40314 -0.219896,0.80628 z"
         style="font-style:normal;font-variant:normal;font-weight:normal;font-stretch:normal;font-family:Optima;-inkscape-font-specification:Optima;fill:#2f6d9e;fill-opacity:1;stroke-width:0.09544104"
         id="path850"
         inkscape:connector-curvature="0" />
      <path
         d="m 46.304265,265.89755 q 0,-1.94242 1.319377,-3.17017 1.337702,-1.24608 3.335092,-1.24608 1.887442,0 3.060222,1.22775 1.191104,1.20943 1.191104,3.24347 0,1.86912 -1.154455,3.15185 -1.264403,1.39267 -3.426715,1.39267 -1.887442,0 -3.115196,-1.24608 -1.209429,-1.2644 -1.209429,-3.35341 z m 4.636144,-3.84819 q -1.612572,0 -2.382208,1.31938 -0.641364,1.08116 -0.641364,2.80368 0,1.5576 0.641364,2.56545 0.751312,1.19111 2.217286,1.19111 1.44765,0 2.217287,-1.4843 0.604714,-1.15446 0.604714,-2.58378 0,-1.50263 -0.54974,-2.51048 -0.714663,-1.30106 -2.107339,-1.30106 z"
         style="font-style:normal;font-variant:normal;font-weight:normal;font-stretch:normal;font-family:Optima;-inkscape-font-specification:Optima;fill:#2f6d9e;fill-opacity:1;stroke-width:0.09544104"
         id="path852"
         inkscape:connector-curvature="0" />
      <path
         d="m 61.232295,262.25094 q -1.44765,0 -2.162313,1.3377 -0.586389,1.09948 -0.586389,2.9686 0,1.50262 0.678013,2.43718 0.696338,0.91623 1.887442,0.91623 1.411001,0 2.143988,-1.411 0.58639,-1.1178 0.58639,-2.69373 0,-1.59424 -0.58639,-2.51048 -0.678013,-1.0445 -1.960741,-1.0445 z m -4.178028,8.04453 v -13.70686 l 0.732988,0.055 0.732987,-0.055 v 6.78013 q 0.623039,-0.91623 1.337702,-1.37435 0.806286,-0.51309 1.832468,-0.51309 1.814143,0 2.822001,1.35603 0.879585,1.1911 0.879585,2.8953 0,1.94241 -1.081156,3.29844 -1.17278,1.46597 -3.060222,1.46597 -1.007858,0 -1.740845,-0.45811 -0.513091,-0.31152 -0.86126,-0.84294 -0.219896,0.16492 -0.62304,0.53142 -0.311519,0.29319 -0.623039,0.56806 z"
         style="font-style:normal;font-variant:normal;font-weight:normal;font-stretch:normal;font-family:Optima;-inkscape-font-specification:Optima;fill:#2f6d9e;fill-opacity:1;stroke-width:0.09544104"
         id="path854"
         inkscape:connector-curvature="0" />
      <path
         d="m 69.343545,261.59125 v 8.7592 l -0.732987,-0.055 -0.732987,0.055 v -8.7592 l 0.732987,0.055 z m 0.201572,-3.13352 q 0,0.38481 -0.274871,0.65969 -0.27487,0.27487 -0.659688,0.27487 -0.384819,0 -0.659689,-0.27487 -0.27487,-0.27488 -0.27487,-0.65969 0,-0.38482 0.27487,-0.65969 0.27487,-0.27487 0.659689,-0.27487 0.366493,0 0.641364,0.27487 0.293195,0.25654 0.293195,0.65969 z"
         style="font-style:normal;font-variant:normal;font-weight:normal;font-stretch:normal;font-family:Optima;-inkscape-font-specification:Optima;fill:#2f6d9e;fill-opacity:1;stroke-width:0.09544104"
         id="path856"
         inkscape:connector-curvature="0" />
      <path
         d="m 79.263498,268.463 -0.01832,0.95289 q -0.714663,0.51309 -1.502624,0.80628 -0.787962,0.27487 -1.649222,0.27487 -1.942416,0 -3.13352,-1.20943 -1.191105,-1.20943 -1.191105,-3.29844 0,-1.99739 1.062832,-3.20682 1.13613,-1.30105 3.133521,-1.30105 1.630896,0 2.620429,1.08116 1.099481,1.1911 1.099481,3.40839 l -3.71991,-0.055 h -2.583781 q 0,1.64922 0.751312,2.67541 0.842936,1.13613 2.418858,1.13613 0.842936,0 1.630897,-0.4398 0.531416,-0.29319 1.081156,-0.82461 z m -5.882223,-3.22514 h 4.874366 q 0,-1.411 -0.458117,-2.19896 -0.568065,-0.98954 -1.832468,-0.98954 -1.227754,0 -1.942417,1.00786 -0.641364,0.89791 -0.641364,2.18064 z"
         style="font-style:normal;font-variant:normal;font-weight:normal;font-stretch:normal;font-family:Optima;-inkscape-font-specification:Optima;fill:#2f6d9e;fill-opacity:1;stroke-width:0.09544104"
         id="path858"
         inkscape:connector-curvature="0" />
      <path
         d="m 81.755652,270.35045 v -8.7592 l 0.732988,0.055 0.732987,-0.055 v 1.83247 l 0.09162,-0.2199 q 0.494767,-0.78796 1.026183,-1.20943 0.641363,-0.51309 1.282727,-0.51309 0.366494,0 0.568065,0.0916 l -0.256545,1.53928 q -0.09162,-0.0183 -0.384818,-0.1466 -0.293195,-0.1466 -0.476442,-0.1466 -0.31152,0 -0.641364,0.12827 -0.329844,0.10995 -0.531416,0.32985 -0.421468,0.49476 -0.54974,1.00786 -0.128273,0.51309 -0.128273,1.31937 v 4.7461 l -0.732987,-0.055 z"
         style="font-style:normal;font-variant:normal;font-weight:normal;font-stretch:normal;font-family:Optima;-inkscape-font-specification:Optima;fill:#2f6d9e;fill-opacity:1;stroke-width:0.09544104"
         id="path860"
         inkscape:connector-curvature="0" />
      <path
         d="m 87.839162,270.35045 v -8.7592 l 0.732987,0.055 0.732988,-0.055 v 1.66754 q 0.476441,-0.84293 1.227753,-1.30105 0.769637,-0.47644 1.722521,-0.47644 1.557598,0 2.253935,0.86126 0.696338,0.86126 0.696338,2.71205 v 5.29584 l -0.732987,-0.055 -0.732987,0.055 v -4.87437 q 0,-1.46597 -0.366494,-2.16231 -0.476442,-0.87959 -1.667546,-0.87959 -1.356026,0 -1.924092,0.98954 -0.476441,0.84293 -0.476441,2.6754 v 4.25133 l -0.732988,-0.055 z"
         style="font-style:normal;font-variant:normal;font-weight:normal;font-stretch:normal;font-family:Optima;-inkscape-font-specification:Optima;fill:#2f6d9e;fill-opacity:1;stroke-width:0.09544104"
         id="path862"
         inkscape:connector-curvature="0" />
      <path
         d="m 97.269786,265.89755 q 0,-1.94242 1.319377,-3.17017 1.337702,-1.24608 3.335087,-1.24608 1.88745,0 3.06023,1.22775 1.1911,1.20943 1.1911,3.24347 0,1.86912 -1.15445,3.15185 -1.26441,1.39267 -3.42672,1.39267 -1.887442,0 -3.115195,-1.24608 -1.209429,-1.2644 -1.209429,-3.35341 z m 4.636144,-3.84819 q -1.61257,0 -2.382208,1.31938 -0.641364,1.08116 -0.641364,2.80368 0,1.5576 0.641364,2.56545 0.751308,1.19111 2.217288,1.19111 1.44765,0 2.21728,-1.4843 0.60472,-1.15446 0.60472,-2.58378 0,-1.50263 -0.54974,-2.51048 -0.71466,-1.30106 -2.10734,-1.30106 z"
         style="font-style:normal;font-variant:normal;font-weight:normal;font-stretch:normal;font-family:Optima;-inkscape-font-specification:Optima;fill:#2f6d9e;fill-opacity:1;stroke-width:0.09544104"
         id="path864"
         inkscape:connector-curvature="0" />
      <path
         d="m 120.83504,256.58861 v 13.76184 l -0.73298,-0.055 -0.73299,0.055 v -1.75917 q -1.11781,1.90576 -3.15185,1.90576 -1.63089,0 -2.6021,-1.08115 -1.06283,-1.17278 -1.06283,-3.35342 0,-1.94242 1.08115,-3.26179 1.08116,-1.31938 2.85865,-1.31938 0.91624,0 1.64922,0.47644 0.73299,0.45812 1.22776,1.30105 v -6.67018 l 0.73299,0.055 z m -1.46597,9.14402 q 0,-1.37436 -0.53142,-2.32724 -0.65969,-1.17278 -1.94241,-1.17278 -1.57593,0 -2.23561,1.3377 -0.49477,0.98954 -0.49477,2.74871 0,1.39267 0.53141,2.34555 0.65969,1.17278 1.97907,1.17278 1.42933,0 2.14399,-1.411 0.54974,-1.09948 0.54974,-2.69372 z"
         style="font-style:normal;font-variant:normal;font-weight:normal;font-stretch:normal;font-family:Optima;-inkscape-font-specification:Optima;fill:#2f6d9e;fill-opacity:1;stroke-width:0.09544104"
         id="path866"
         inkscape:connector-curvature="0" />
      <path
         d="m 130.22902,268.463 -0.0183,0.95289 q -0.71467,0.51309 -1.50263,0.80628 -0.78796,0.27487 -1.64922,0.27487 -1.94242,0 -3.13352,-1.20943 -1.1911,-1.20943 -1.1911,-3.29844 0,-1.99739 1.06283,-3.20682 1.13613,-1.30105 3.13352,-1.30105 1.6309,0 2.62043,1.08116 1.09948,1.1911 1.09948,3.40839 l -3.71991,-0.055 h -2.58378 q 0,1.64922 0.75131,2.67541 0.84294,1.13613 2.41886,1.13613 0.84293,0 1.63089,-0.4398 0.53142,-0.29319 1.08116,-0.82461 z m -5.88222,-3.22514 h 4.87436 q 0,-1.411 -0.45811,-2.19896 -0.56807,-0.98954 -1.83247,-0.98954 -1.22776,0 -1.94242,1.00786 -0.64136,0.89791 -0.64136,2.18064 z"
         style="font-style:normal;font-variant:normal;font-weight:normal;font-stretch:normal;font-family:Optima;-inkscape-font-specification:Optima;fill:#2f6d9e;fill-opacity:1;stroke-width:0.09544104"
         id="path868"
         inkscape:connector-curvature="0" />
      <path
         d="m 147.64377,268.37138 -0.0916,1.15445 q -0.80628,0.54975 -1.86911,0.78797 -1.06284,0.25654 -2.18064,0.25654 -3.00525,0 -4.72777,-1.77749 -1.72252,-1.7775 -1.72252,-4.78274 0,-3.00525 1.99739,-4.78275 1.90577,-1.68587 4.91102,-1.68587 0.9712,0 1.97906,0.2199 1.02618,0.21989 1.96074,0.62304 -0.10995,0.27487 -0.21989,0.69634 -0.10995,0.40314 -0.16493,0.71466 l -0.12827,0.0183 q -0.20157,-0.25654 -0.71466,-0.62304 -1.3377,-0.95288 -2.78535,-0.95288 -2.41886,0 -3.77489,1.74085 -1.2644,1.61257 -1.2644,4.10472 0,2.62043 1.35603,4.19636 1.35602,1.57592 3.55498,1.57592 0.98954,0 2.03404,-0.38482 1.04451,-0.40314 1.8508,-1.09948 z"
         style="font-style:normal;font-variant:normal;font-weight:normal;font-stretch:normal;font-family:Optima;-inkscape-font-specification:Optima;fill:#2f6d9e;fill-opacity:1;stroke-width:0.09544104"
         id="path870"
         inkscape:connector-curvature="0" />
      <path
         d="m 150.00708,270.35045 v -13.76184 l 0.73299,0.055 0.73299,-0.055 v 6.67018 q 0.47644,-0.84293 1.22775,-1.30105 0.76964,-0.47644 1.72252,-0.47644 1.5576,0 2.25394,0.89791 0.69633,0.87958 0.69633,2.6754 v 5.29584 l -0.73298,-0.055 -0.73299,0.055 v -4.87437 q 0,-1.59425 -0.42147,-2.27226 -0.47644,-0.76964 -1.61257,-0.76964 -2.40053,0 -2.40053,2.93195 v 4.98432 l -0.73299,-0.055 z"
         style="font-style:normal;font-variant:normal;font-weight:normal;font-stretch:normal;font-family:Optima;-inkscape-font-specification:Optima;fill:#2f6d9e;fill-opacity:1;stroke-width:0.09544104"
         id="path872"
         inkscape:connector-curvature="0" />
      <path
         d="m 162.07646,261.59125 v 8.7592 l -0.73298,-0.055 -0.73299,0.055 v -8.7592 l 0.73299,0.055 z m 0.20157,-3.13352 q 0,0.38481 -0.27487,0.65969 -0.27487,0.27487 -0.65968,0.27487 -0.38482,0 -0.65969,-0.27487 -0.27487,-0.27488 -0.27487,-0.65969 0,-0.38482 0.27487,-0.65969 0.27487,-0.27487 0.65969,-0.27487 0.36649,0 0.64136,0.27487 0.29319,0.25654 0.29319,0.65969 z"
         style="font-style:normal;font-variant:normal;font-weight:normal;font-stretch:normal;font-family:Optima;-inkscape-font-specification:Optima;fill:#2f6d9e;fill-opacity:1;stroke-width:0.09544104"
         id="path874"
         inkscape:connector-curvature="0" />
      <path
         d="m 165.69272,270.35045 v -13.76184 l 0.73299,0.055 0.73298,-0.055 v 13.76184 l -0.73298,-0.055 z"
         style="font-style:normal;font-variant:normal;font-weight:normal;font-stretch:normal;font-family:Optima;-inkscape-font-specification:Optima;fill:#2f6d9e;fill-opacity:1;stroke-width:0.09544104"
         id="path876"
         inkscape:connector-curvature="0" />
      <path
         d="m 177.07865,268.463 -0.0183,0.95289 q -0.71466,0.51309 -1.50263,0.80628 -0.78796,0.27487 -1.64922,0.27487 -1.94241,0 -3.13352,-1.20943 -1.1911,-1.20943 -1.1911,-3.29844 0,-1.99739 1.06283,-3.20682 1.13613,-1.30105 3.13352,-1.30105 1.6309,0 2.62043,1.08116 1.09948,1.1911 1.09948,3.40839 l -3.71991,-0.055 h -2.58378 q 0,1.64922 0.75131,2.67541 0.84294,1.13613 2.41886,1.13613 0.84294,0 1.6309,-0.4398 0.53141,-0.29319 1.08115,-0.82461 z m -5.88222,-3.22514 h 4.87437 q 0,-1.411 -0.45812,-2.19896 -0.56807,-0.98954 -1.83247,-0.98954 -1.22775,0 -1.94242,1.00786 -0.64136,0.89791 -0.64136,2.18064 z"
         style="font-style:normal;font-variant:normal;font-weight:normal;font-stretch:normal;font-family:Optima;-inkscape-font-specification:Optima;fill:#2f6d9e;fill-opacity:1;stroke-width:0.09544104"
         id="path878"
         inkscape:connector-curvature="0" />
    </g>
  </g>
</svg>
