<?xml version="1.0" encoding="utf-8"?>
<svg xmlns="http://www.w3.org/2000/svg" viewBox="0 0 16 16" aria-hidden="true">
<path d="M8.5,1.3c-0.3-0.2-0.6-0.2-0.9,0l-6,3.2C1.2,4.7,1,5,1,5.4v0.8l5.8,3.4L8,8.9l1.2,0.8L15,6.2V5.4
	c0-0.4-0.2-0.7-0.5-0.9L8.5,1.3z M15,7.4l-4.8,2.9l4.8,2.9V7.4z M15,14.3l-7-4.2l-7,4.2C1.2,14.7,1.5,15,2,15h12
	C14.5,15,14.8,14.7,15,14.3L15,14.3z M1,13.1l4.8-2.9L1,7.4V13.1L1,13.1z M7.1,0.4c0.6-0.3,1.3-0.3,1.9,0l6,3.2
	C15.6,4,16,4.7,16,5.4V14c0,1.1-0.9,2-2,2H2c-1.1,0-2-0.9-2-2V5.4C0,4.7,0.4,4,1.1,3.6L7.1,0.4z"/>
</svg>
