<?xml version="1.0" encoding="utf-8"?>
<!-- Generator: Adobe Illustrator 28.3.0, SVG Export Plug-In . SVG Version: 6.00 Build 0)  -->
<svg version="1.1" id="Capa_1" xmlns="http://www.w3.org/2000/svg" xmlns:xlink="http://www.w3.org/1999/xlink" x="0px" y="0px"
	 viewBox="0 0 16 16" style="enable-background:new 0 0 16 16;" xml:space="preserve">
<style type="text/css">
	.st0{fill:#6577C7;}
</style>
<path class="st0" d="M0,8c0-4.4,3.6-8,8-8s8,3.6,8,8s-3.6,8-8,8S0,12.4,0,8 M7.5,1.1C6.8,1.3,6.2,1.9,5.6,2.9C5.4,3.3,5.3,3.6,5.1,4
	h2.4V1.1z M4.1,4c0.2-0.5,0.4-1,0.6-1.5c0.2-0.3,0.4-0.6,0.6-0.9C4.1,2,3,2.9,2.3,4H4.1z M3.5,7.5c0-0.9,0.1-1.7,0.3-2.5H1.7
	C1.3,5.8,1.1,6.6,1,7.5H3.5z M4.8,5C4.7,5.8,4.5,6.7,4.5,7.5h3V5H4.8z M8.5,5v2.5h3c0-0.8-0.1-1.7-0.3-2.5H8.5z M4.5,8.5
	c0,0.8,0.1,1.7,0.3,2.5h2.7V8.5H4.5z M8.5,8.5V11h2.7c0.2-0.8,0.3-1.6,0.3-2.5H8.5z M5.1,12c0.1,0.4,0.3,0.7,0.5,1.1
	c0.6,1,1.2,1.6,1.9,1.9V12H5.1z M5.3,14.5c-0.2-0.3-0.4-0.6-0.6-0.9c-0.3-0.5-0.5-1-0.6-1.5H2.3C3,13.1,4.1,14,5.3,14.5 M3.8,11
	c-0.2-0.8-0.3-1.7-0.3-2.5H1c0.1,0.9,0.3,1.7,0.7,2.5H3.8z M10.7,14.5c1.2-0.5,2.3-1.4,3.1-2.5h-1.8c-0.2,0.5-0.4,1-0.6,1.5
	C11.1,13.9,10.9,14.2,10.7,14.5 M8.5,12v2.9c0.7-0.2,1.3-0.8,1.9-1.9c0.2-0.3,0.3-0.7,0.5-1.1L8.5,12z M12.2,11h2.1
	c0.4-0.8,0.6-1.6,0.7-2.5h-2.5C12.5,9.3,12.4,10.2,12.2,11 M15,7.5c-0.1-0.9-0.3-1.7-0.7-2.5h-2.1c0.2,0.8,0.3,1.6,0.3,2.5H15z
	 M11.3,2.5c0.2,0.5,0.5,1,0.6,1.5h1.8c-0.8-1.1-1.8-2-3.1-2.5C10.9,1.8,11.1,2.1,11.3,2.5 M10.9,4c-0.1-0.4-0.3-0.7-0.5-1.1
	c-0.6-1-1.2-1.7-1.9-1.9V4H10.9z"/>
</svg>
